<svg width="9" height="9" viewBox="0 0 9 9" fill="none" xmlns="http://www.w3.org/2000/svg">
<path d="M2.4285 2.91575L3.48516 3.97242C3.31975 4.27394 3.21168 4.42633 2.896 4.56158L0.833496 2.49908L2.896 0.436584C3.23972 0.548973 3.36976 0.687314 3.48516 1.02575L2.4285 2.08242H5.41683C6.30089 2.08242 7.14873 2.43361 7.77385 3.05873C8.39897 3.68385 8.75016 4.5317 8.75016 5.41575C8.75016 6.29981 8.39897 7.14765 7.77385 7.77277C7.14873 8.3979 6.30089 8.74908 5.41683 8.74908H1.66683V7.91575H5.41683C6.07987 7.91575 6.71576 7.65236 7.1846 7.18352C7.65344 6.71468 7.91683 6.07879 7.91683 5.41575C7.91683 4.75271 7.65344 4.11683 7.1846 3.64798C6.71576 3.17914 6.07987 2.91575 5.41683 2.91575L2.4285 2.91575Z" fill="#464646"/>
</svg>
